<svg xmlns="http://www.w3.org/2000/svg" xmlns:xlink="http://www.w3.org/1999/xlink" width="491.339" height="166.299" viewBox="0 0 368.504 124.724" color-interpolation-filters="sRGB" class="st6"><style><![CDATA[
		.st1 {fill:none;stroke:none;stroke-linecap:round;stroke-linejoin:round;stroke-width:0.75}
		.st2 {fill:#000000;font-family:Lucida Console;font-size:5.83333em;font-stretch:semi-condensed}
		.st3 {fill:#000000;font-family:Segoe UI Light;font-size:1.66667em;font-stretch:semi-condensed}
		.st4 {marker-end:url(#mrkr7-18);stroke:#4bacc6;stroke-width:3.5}
		.st5 {fill:#4bacc6;fill-opacity:1;stroke:#4bacc6;stroke-opacity:1;stroke-width:0.7085020242915}
		.st6 {fill:none;fill-rule:evenodd;font-size:12px;overflow:visible;stroke-linecap:square;stroke-miterlimit:3}
	]]></style><defs id="Markers"><path d="M1.843-.96C1.438-.38.785-.025.08 0c.704.026 1.358.38 1.763.96" stroke-linecap="round" stroke-linejoin="round" fill="none" id="lend7"/><marker id="mrkr7-18" class="st5" orient="auto" overflow="visible"><use xlink:href="#lend7" transform="scale(-1.41143)"/></marker></defs><title>Logo</title><g id="shape10-1" transform="translate(.24 -37.37)"><title>Sheet.10</title><desc>&lt;/&gt;</desc><path class="st1" d="M0 43.746h137.708v80.978H0z"/><text x="4" y="102.48" class="st2">&lt;/&gt;</text></g><g id="shape18-4" transform="translate(282.93 -37.088)"><title>Sheet.18</title><desc>{}</desc><path class="st1" d="M0 43.746h99.748v80.978H0z"/><text x="4" y="102.48" class="st2">{}</text></g><g id="shape29-7" transform="translate(45.667)"><title>Sheet.29</title><desc>XML</desc><path class="st1" d="M0 96.72h46.854v28.005H0z"/><text x="4" y="115.72" class="st3">XML</text></g><g id="shape30-10" transform="translate(285.158 -1.315)"><title>Sheet.30</title><desc>JS / JSON</desc><path class="st1" d="M0 96.72h85.966v28.005H0z"/><text x="4" y="115.72" class="st3">JS / JSON</text></g><g id="shape34-13" transform="translate(159.106 -87.345)"><title>Sheet.34</title><path d="M0 124.72h98.76" class="st4"/></g><g id="shape35-19" transform="matrix(-1 0 0 1 253.632 -68.374)"><title>Sheet.35</title><path d="M0 124.72h98.76" class="st4"/></g></svg>